<?xml version="1.0" standalone="no"?><!DOCTYPE svg PUBLIC "-//W3C//DTD SVG 1.1//EN" "http://www.w3.org/Graphics/SVG/1.1/DTD/svg11.dtd"><svg t="1600952271153" class="icon" viewBox="0 0 1024 1024" version="1.1" xmlns="http://www.w3.org/2000/svg" p-id="3205" xmlns:xlink="http://www.w3.org/1999/xlink" width="200" height="200"><defs><style type="text/css"></style></defs><path d="M500.67456 936.92928L132.7872 777.5232a36.93056 36.93056 0 0 1 0.4096-67.98848l367.88736-167.26016a37.15072 37.15072 0 0 1 28.89216 0.0768l362.68032 167.28064a36.93056 36.93056 0 0 1 0.4096 67.84l-362.68544 159.38048a37.15072 37.15072 0 0 1-29.70624 0.0768z" fill="#F4CA1C" p-id="3206"></path><path d="M514.51392 538.112a69.6832 69.6832 0 0 1-27.76064-5.74464L119.0656 372.736a69.632 69.632 0 0 1 0.2304-127.90784l368.2304-167.69536a70.08256 70.08256 0 0 1 54.33856 0.13824l0.896 0.39936 362.10176 167.30112a69.632 69.632 0 0 1 0.26112 127.61088l-362.496 159.61088a69.7088 69.7088 0 0 1-28.11392 5.91872z m-1.73056-65.63328a4.39808 4.39808 0 0 0 3.50208 0l362.496-159.61088a4.37248 4.37248 0 0 0-0.04096-8.02304l-0.90624-0.39936-361.82016-167.168a4.41856 4.41856 0 0 0-2.94912 0L145.14688 304.80896a4.37248 4.37248 0 0 0-0.04608 8.0384z m1.95584 269.056a72.97024 72.97024 0 0 1-29.04576-6.016l-399.45728-173.41952a32.65024 32.65024 0 1 1 26.0352-59.904l399.45216 173.40416a7.62368 7.62368 0 0 0 6.07744 0l393.8048-173.40416a32.65024 32.65024 0 1 1 26.3424 59.7504l-393.8048 173.40928a72.92416 72.92416 0 0 1-29.40416 6.16448z m0 205.68064a72.87808 72.87808 0 0 1-29.04576-6.016l-399.45728-173.41952a32.65024 32.65024 0 1 1 26.0352-59.904l399.45216 173.39904a7.62368 7.62368 0 0 0 6.07744 0l393.8048-173.40416a32.64512 32.64512 0 1 1 26.3424 59.74528L544.14336 941.056a73.00608 73.00608 0 0 1-29.40416 6.144z" fill="#595BB3" p-id="3207"></path></svg>